<?xml version="1.0" encoding="utf-8" standalone="no"?>
<!DOCTYPE svg PUBLIC "-//W3C//DTD SVG 1.1//EN"
  "http://www.w3.org/Graphics/SVG/1.1/DTD/svg11.dtd">
<svg xmlns:xlink="http://www.w3.org/1999/xlink" width="432pt" height="288pt" viewBox="0 0 432 288" xmlns="http://www.w3.org/2000/svg" version="1.1">
 <metadata>
  <rdf:RDF xmlns:dc="http://purl.org/dc/elements/1.1/" xmlns:cc="http://creativecommons.org/ns#" xmlns:rdf="http://www.w3.org/1999/02/22-rdf-syntax-ns#">
   <cc:Work>
    <dc:type rdf:resource="http://purl.org/dc/dcmitype/StillImage"/>
    <dc:date>2025-11-17T15:49:07.117213</dc:date>
    <dc:format>image/svg+xml</dc:format>
    <dc:creator>
     <cc:Agent>
      <dc:title>Matplotlib v3.10.5, https://matplotlib.org/</dc:title>
     </cc:Agent>
    </dc:creator>
   </cc:Work>
  </rdf:RDF>
 </metadata>
 <defs>
  <style type="text/css">*{stroke-linejoin: round; stroke-linecap: butt}</style>
 </defs>
 <g id="figure_1">
  <g id="patch_1">
   <path d="M 0 288 
L 432 288 
L 432 0 
L 0 0 
z
" style="fill: #ffffff"/>
  </g>
  <g id="axes_1">
   <g id="patch_2">
    <path d="M 46.55 246.04 
L 418.005 246.04 
L 418.005 46.896 
L 46.55 46.896 
z
" style="fill: #ffffff"/>
   </g>
   <g id="matplotlib.axis_1">
    <g id="xtick_1">
     <g id="line2d_1">
      <path d="M 46.55 246.04 
L 46.55 46.896 
" clip-path="url(#p1fcfd8a85a)" style="fill: none; stroke: #b0b0b0; stroke-width: 0.8; stroke-linecap: square"/>
     </g>
     <g id="line2d_2">
      <defs>
       <path id="m47d23ba7c4" d="M 0 0 
L 0 3.5 
" style="stroke: #000000; stroke-width: 0.8"/>
      </defs>
      <g>
       <use xlink:href="#m47d23ba7c4" x="46.55" y="246.04" style="stroke: #000000; stroke-width: 0.8"/>
      </g>
     </g>
     <g id="text_1">
      <!-- −4 -->
      <g transform="translate(39.178906 260.638438) scale(0.1 -0.1)">
       <defs>
        <path id="DejaVuSans-2212" d="M 678 2272 
L 4684 2272 
L 4684 1741 
L 678 1741 
L 678 2272 
z
" transform="scale(0.015625)"/>
        <path id="DejaVuSans-34" d="M 2419 4116 
L 825 1625 
L 2419 1625 
L 2419 4116 
z
M 2253 4666 
L 3047 4666 
L 3047 1625 
L 3713 1625 
L 3713 1100 
L 3047 1100 
L 3047 0 
L 2419 0 
L 2419 1100 
L 313 1100 
L 313 1709 
L 2253 4666 
z
" transform="scale(0.015625)"/>
       </defs>
       <use xlink:href="#DejaVuSans-2212"/>
       <use xlink:href="#DejaVuSans-34" transform="translate(83.789062 0)"/>
      </g>
     </g>
    </g>
    <g id="xtick_2">
     <g id="line2d_3">
      <path d="M 120.841 246.04 
L 120.841 46.896 
" clip-path="url(#p1fcfd8a85a)" style="fill: none; stroke: #b0b0b0; stroke-width: 0.8; stroke-linecap: square"/>
     </g>
     <g id="line2d_4">
      <g>
       <use xlink:href="#m47d23ba7c4" x="120.841" y="246.04" style="stroke: #000000; stroke-width: 0.8"/>
      </g>
     </g>
     <g id="text_2">
      <!-- −2 -->
      <g transform="translate(113.469906 260.638438) scale(0.1 -0.1)">
       <defs>
        <path id="DejaVuSans-32" d="M 1228 531 
L 3431 531 
L 3431 0 
L 469 0 
L 469 531 
Q 828 903 1448 1529 
Q 2069 2156 2228 2338 
Q 2531 2678 2651 2914 
Q 2772 3150 2772 3378 
Q 2772 3750 2511 3984 
Q 2250 4219 1831 4219 
Q 1534 4219 1204 4116 
Q 875 4013 500 3803 
L 500 4441 
Q 881 4594 1212 4672 
Q 1544 4750 1819 4750 
Q 2544 4750 2975 4387 
Q 3406 4025 3406 3419 
Q 3406 3131 3298 2873 
Q 3191 2616 2906 2266 
Q 2828 2175 2409 1742 
Q 1991 1309 1228 531 
z
" transform="scale(0.015625)"/>
       </defs>
       <use xlink:href="#DejaVuSans-2212"/>
       <use xlink:href="#DejaVuSans-32" transform="translate(83.789062 0)"/>
      </g>
     </g>
    </g>
    <g id="xtick_3">
     <g id="line2d_5">
      <path d="M 195.132 246.04 
L 195.132 46.896 
" clip-path="url(#p1fcfd8a85a)" style="fill: none; stroke: #b0b0b0; stroke-width: 0.8; stroke-linecap: square"/>
     </g>
     <g id="line2d_6">
      <g>
       <use xlink:href="#m47d23ba7c4" x="195.132" y="246.04" style="stroke: #000000; stroke-width: 0.8"/>
      </g>
     </g>
     <g id="text_3">
      <!-- 0 -->
      <g transform="translate(191.95075 260.638438) scale(0.1 -0.1)">
       <defs>
        <path id="DejaVuSans-30" d="M 2034 4250 
Q 1547 4250 1301 3770 
Q 1056 3291 1056 2328 
Q 1056 1369 1301 889 
Q 1547 409 2034 409 
Q 2525 409 2770 889 
Q 3016 1369 3016 2328 
Q 3016 3291 2770 3770 
Q 2525 4250 2034 4250 
z
M 2034 4750 
Q 2819 4750 3233 4129 
Q 3647 3509 3647 2328 
Q 3647 1150 3233 529 
Q 2819 -91 2034 -91 
Q 1250 -91 836 529 
Q 422 1150 422 2328 
Q 422 3509 836 4129 
Q 1250 4750 2034 4750 
z
" transform="scale(0.015625)"/>
       </defs>
       <use xlink:href="#DejaVuSans-30"/>
      </g>
     </g>
    </g>
    <g id="xtick_4">
     <g id="line2d_7">
      <path d="M 269.423 246.04 
L 269.423 46.896 
" clip-path="url(#p1fcfd8a85a)" style="fill: none; stroke: #b0b0b0; stroke-width: 0.8; stroke-linecap: square"/>
     </g>
     <g id="line2d_8">
      <g>
       <use xlink:href="#m47d23ba7c4" x="269.423" y="246.04" style="stroke: #000000; stroke-width: 0.8"/>
      </g>
     </g>
     <g id="text_4">
      <!-- 2 -->
      <g transform="translate(266.24175 260.638438) scale(0.1 -0.1)">
       <use xlink:href="#DejaVuSans-32"/>
      </g>
     </g>
    </g>
    <g id="xtick_5">
     <g id="line2d_9">
      <path d="M 343.714 246.04 
L 343.714 46.896 
" clip-path="url(#p1fcfd8a85a)" style="fill: none; stroke: #b0b0b0; stroke-width: 0.8; stroke-linecap: square"/>
     </g>
     <g id="line2d_10">
      <g>
       <use xlink:href="#m47d23ba7c4" x="343.714" y="246.04" style="stroke: #000000; stroke-width: 0.8"/>
      </g>
     </g>
     <g id="text_5">
      <!-- 4 -->
      <g transform="translate(340.53275 260.638438) scale(0.1 -0.1)">
       <use xlink:href="#DejaVuSans-34"/>
      </g>
     </g>
    </g>
    <g id="xtick_6">
     <g id="line2d_11">
      <path d="M 418.005 246.04 
L 418.005 46.896 
" clip-path="url(#p1fcfd8a85a)" style="fill: none; stroke: #b0b0b0; stroke-width: 0.8; stroke-linecap: square"/>
     </g>
     <g id="line2d_12">
      <g>
       <use xlink:href="#m47d23ba7c4" x="418.005" y="246.04" style="stroke: #000000; stroke-width: 0.8"/>
      </g>
     </g>
     <g id="text_6">
      <!-- 6 -->
      <g transform="translate(414.82375 260.638438) scale(0.1 -0.1)">
       <defs>
        <path id="DejaVuSans-36" d="M 2113 2584 
Q 1688 2584 1439 2293 
Q 1191 2003 1191 1497 
Q 1191 994 1439 701 
Q 1688 409 2113 409 
Q 2538 409 2786 701 
Q 3034 994 3034 1497 
Q 3034 2003 2786 2293 
Q 2538 2584 2113 2584 
z
M 3366 4563 
L 3366 3988 
Q 3128 4100 2886 4159 
Q 2644 4219 2406 4219 
Q 1781 4219 1451 3797 
Q 1122 3375 1075 2522 
Q 1259 2794 1537 2939 
Q 1816 3084 2150 3084 
Q 2853 3084 3261 2657 
Q 3669 2231 3669 1497 
Q 3669 778 3244 343 
Q 2819 -91 2113 -91 
Q 1303 -91 875 529 
Q 447 1150 447 2328 
Q 447 3434 972 4092 
Q 1497 4750 2381 4750 
Q 2619 4750 2861 4703 
Q 3103 4656 3366 4563 
z
" transform="scale(0.015625)"/>
       </defs>
       <use xlink:href="#DejaVuSans-36"/>
      </g>
     </g>
    </g>
    <g id="text_7">
     <!-- x -->
     <g transform="translate(229.318125 274.316562) scale(0.1 -0.1)">
      <defs>
       <path id="DejaVuSans-78" d="M 3513 3500 
L 2247 1797 
L 3578 0 
L 2900 0 
L 1881 1375 
L 863 0 
L 184 0 
L 1544 1831 
L 300 3500 
L 978 3500 
L 1906 2253 
L 2834 3500 
L 3513 3500 
z
" transform="scale(0.015625)"/>
      </defs>
      <use xlink:href="#DejaVuSans-78"/>
     </g>
    </g>
   </g>
   <g id="matplotlib.axis_2">
    <g id="ytick_1">
     <g id="line2d_13">
      <path d="M 46.55 227.936 
L 418.005 227.936 
" clip-path="url(#p1fcfd8a85a)" style="fill: none; stroke: #b0b0b0; stroke-width: 0.8; stroke-linecap: square"/>
     </g>
     <g id="line2d_14">
      <defs>
       <path id="mb2ba0a2d87" d="M 0 0 
L -3.5 0 
" style="stroke: #000000; stroke-width: 0.8"/>
      </defs>
      <g>
       <use xlink:href="#mb2ba0a2d87" x="46.55" y="227.936" style="stroke: #000000; stroke-width: 0.8"/>
      </g>
     </g>
     <g id="text_8">
      <!-- −2 -->
      <g transform="translate(24.807813 231.735219) scale(0.1 -0.1)">
       <use xlink:href="#DejaVuSans-2212"/>
       <use xlink:href="#DejaVuSans-32" transform="translate(83.789062 0)"/>
      </g>
     </g>
    </g>
    <g id="ytick_2">
     <g id="line2d_15">
      <path d="M 46.55 191.728 
L 418.005 191.728 
" clip-path="url(#p1fcfd8a85a)" style="fill: none; stroke: #b0b0b0; stroke-width: 0.8; stroke-linecap: square"/>
     </g>
     <g id="line2d_16">
      <g>
       <use xlink:href="#mb2ba0a2d87" x="46.55" y="191.728" style="stroke: #000000; stroke-width: 0.8"/>
      </g>
     </g>
     <g id="text_9">
      <!-- 0 -->
      <g transform="translate(33.1875 195.527219) scale(0.1 -0.1)">
       <use xlink:href="#DejaVuSans-30"/>
      </g>
     </g>
    </g>
    <g id="ytick_3">
     <g id="line2d_17">
      <path d="M 46.55 155.52 
L 418.005 155.52 
" clip-path="url(#p1fcfd8a85a)" style="fill: none; stroke: #b0b0b0; stroke-width: 0.8; stroke-linecap: square"/>
     </g>
     <g id="line2d_18">
      <g>
       <use xlink:href="#mb2ba0a2d87" x="46.55" y="155.52" style="stroke: #000000; stroke-width: 0.8"/>
      </g>
     </g>
     <g id="text_10">
      <!-- 2 -->
      <g transform="translate(33.1875 159.319219) scale(0.1 -0.1)">
       <use xlink:href="#DejaVuSans-32"/>
      </g>
     </g>
    </g>
    <g id="ytick_4">
     <g id="line2d_19">
      <path d="M 46.55 119.312 
L 418.005 119.312 
" clip-path="url(#p1fcfd8a85a)" style="fill: none; stroke: #b0b0b0; stroke-width: 0.8; stroke-linecap: square"/>
     </g>
     <g id="line2d_20">
      <g>
       <use xlink:href="#mb2ba0a2d87" x="46.55" y="119.312" style="stroke: #000000; stroke-width: 0.8"/>
      </g>
     </g>
     <g id="text_11">
      <!-- 4 -->
      <g transform="translate(33.1875 123.111219) scale(0.1 -0.1)">
       <use xlink:href="#DejaVuSans-34"/>
      </g>
     </g>
    </g>
    <g id="ytick_5">
     <g id="line2d_21">
      <path d="M 46.55 83.104 
L 418.005 83.104 
" clip-path="url(#p1fcfd8a85a)" style="fill: none; stroke: #b0b0b0; stroke-width: 0.8; stroke-linecap: square"/>
     </g>
     <g id="line2d_22">
      <g>
       <use xlink:href="#mb2ba0a2d87" x="46.55" y="83.104" style="stroke: #000000; stroke-width: 0.8"/>
      </g>
     </g>
     <g id="text_12">
      <!-- 6 -->
      <g transform="translate(33.1875 86.903219) scale(0.1 -0.1)">
       <use xlink:href="#DejaVuSans-36"/>
      </g>
     </g>
    </g>
    <g id="ytick_6">
     <g id="line2d_23">
      <path d="M 46.55 46.896 
L 418.005 46.896 
" clip-path="url(#p1fcfd8a85a)" style="fill: none; stroke: #b0b0b0; stroke-width: 0.8; stroke-linecap: square"/>
     </g>
     <g id="line2d_24">
      <g>
       <use xlink:href="#mb2ba0a2d87" x="46.55" y="46.896" style="stroke: #000000; stroke-width: 0.8"/>
      </g>
     </g>
     <g id="text_13">
      <!-- 8 -->
      <g transform="translate(33.1875 50.695219) scale(0.1 -0.1)">
       <defs>
        <path id="DejaVuSans-38" d="M 2034 2216 
Q 1584 2216 1326 1975 
Q 1069 1734 1069 1313 
Q 1069 891 1326 650 
Q 1584 409 2034 409 
Q 2484 409 2743 651 
Q 3003 894 3003 1313 
Q 3003 1734 2745 1975 
Q 2488 2216 2034 2216 
z
M 1403 2484 
Q 997 2584 770 2862 
Q 544 3141 544 3541 
Q 544 4100 942 4425 
Q 1341 4750 2034 4750 
Q 2731 4750 3128 4425 
Q 3525 4100 3525 3541 
Q 3525 3141 3298 2862 
Q 3072 2584 2669 2484 
Q 3125 2378 3379 2068 
Q 3634 1759 3634 1313 
Q 3634 634 3220 271 
Q 2806 -91 2034 -91 
Q 1263 -91 848 271 
Q 434 634 434 1313 
Q 434 1759 690 2068 
Q 947 2378 1403 2484 
z
M 1172 3481 
Q 1172 3119 1398 2916 
Q 1625 2713 2034 2713 
Q 2441 2713 2670 2916 
Q 2900 3119 2900 3481 
Q 2900 3844 2670 4047 
Q 2441 4250 2034 4250 
Q 1625 4250 1398 4047 
Q 1172 3844 1172 3481 
z
" transform="scale(0.015625)"/>
       </defs>
       <use xlink:href="#DejaVuSans-38"/>
      </g>
     </g>
    </g>
    <g id="text_14">
     <!-- y -->
     <g transform="translate(18.728125 149.427375) rotate(-90) scale(0.1 -0.1)">
      <defs>
       <path id="DejaVuSans-79" d="M 2059 -325 
Q 1816 -950 1584 -1140 
Q 1353 -1331 966 -1331 
L 506 -1331 
L 506 -850 
L 844 -850 
Q 1081 -850 1212 -737 
Q 1344 -625 1503 -206 
L 1606 56 
L 191 3500 
L 800 3500 
L 1894 763 
L 2988 3500 
L 3597 3500 
L 2059 -325 
z
" transform="scale(0.015625)"/>
      </defs>
      <use xlink:href="#DejaVuSans-79"/>
     </g>
    </g>
   </g>
   <g id="line2d_25">
    <path d="M 46.55 65 
L 52.345278 74.665439 
L 58.029107 83.716967 
L 63.638639 92.234569 
L 69.136723 100.182297 
L 74.560508 107.633998 
L 79.872846 114.558415 
L 85.110885 121.023436 
L 90.237477 127.002313 
L 95.28977 132.55716 
L 100.267765 137.70275 
L 105.171461 142.453643 
L 110.000859 146.82418 
L 114.755959 150.828485 
L 119.43676 154.480464 
L 124.043262 157.793808 
L 128.575467 160.781987 
L 133.033372 163.458257 
L 137.454129 165.854726 
L 141.800587 167.960924 
L 146.109896 169.804413 
L 150.382056 171.391497 
L 154.617066 172.72842 
L 158.814927 173.821377 
L 162.97564 174.676506 
L 167.136352 175.304493 
L 171.259914 175.702764 
L 175.383477 175.877931 
L 179.50704 175.829993 
L 183.630603 175.558952 
L 187.754166 175.064807 
L 191.877729 174.347558 
L 196.038441 173.397719 
L 200.236302 172.209206 
L 204.434163 170.789477 
L 208.669174 169.12289 
L 212.941334 167.203251 
L 217.287792 165.004471 
L 221.671399 162.535835 
L 226.092156 159.790934 
L 230.587211 156.736978 
L 235.156564 153.36082 
L 239.763067 149.679914 
L 244.443868 145.654443 
L 249.198967 141.270718 
L 254.028365 136.514833 
L 258.932062 131.372663 
L 263.910057 125.829868 
L 268.999499 119.826839 
L 274.16324 113.388834 
L 279.401279 106.500752 
L 284.750766 99.094547 
L 290.174551 91.202139 
L 295.672635 82.807667 
L 301.282167 73.834266 
L 306.965997 64.320901 
L 312.761274 54.184569 
L 318.667999 43.399849 
L 324.649023 32.013018 
L 330.741494 19.931443 
L 336.908264 7.206564 
L 340.762554 -1 
L 340.762554 -1 
" clip-path="url(#p1fcfd8a85a)" style="fill: none; stroke: #a18262; stroke-width: 1.5; stroke-linecap: square"/>
   </g>
   <g id="line2d_26">
    <path d="M 195.132 173.624 
" clip-path="url(#p1fcfd8a85a)" style="fill: none; stroke: #f7dc6f; stroke-width: 1.5; stroke-linecap: square"/>
    <defs>
     <path id="m7c3e378ab9" d="M 0 3 
C 0.795609 3 1.55874 2.683901 2.12132 2.12132 
C 2.683901 1.55874 3 0.795609 3 0 
C 3 -0.795609 2.683901 -1.55874 2.12132 -2.12132 
C 1.55874 -2.683901 0.795609 -3 0 -3 
C -0.795609 -3 -1.55874 -2.683901 -2.12132 -2.12132 
C -2.683901 -1.55874 -3 -0.795609 -3 0 
C -3 0.795609 -2.683901 1.55874 -2.12132 2.12132 
C -1.55874 2.683901 -0.795609 3 0 3 
z
" style="stroke: #f7dc6f"/>
    </defs>
    <g clip-path="url(#p1fcfd8a85a)">
     <use xlink:href="#m7c3e378ab9" x="195.132" y="173.624" style="fill: #f7dc6f; stroke: #f7dc6f"/>
    </g>
   </g>
   <g id="line2d_27">
    <path d="M 232.2775 155.52 
" clip-path="url(#p1fcfd8a85a)" style="fill: none; stroke: #f7dc6f; stroke-width: 1.5; stroke-linecap: square"/>
    <g clip-path="url(#p1fcfd8a85a)">
     <use xlink:href="#m7c3e378ab9" x="232.2775" y="155.52" style="fill: #f7dc6f; stroke: #f7dc6f"/>
    </g>
   </g>
   <g id="line2d_28">
    <path d="M 269.423 119.312 
" clip-path="url(#p1fcfd8a85a)" style="fill: none; stroke: #f7dc6f; stroke-width: 1.5; stroke-linecap: square"/>
    <g clip-path="url(#p1fcfd8a85a)">
     <use xlink:href="#m7c3e378ab9" x="269.423" y="119.312" style="fill: #f7dc6f; stroke: #f7dc6f"/>
    </g>
   </g>
   <g id="line2d_29">
    <path d="M 46.55 191.728 
L 418.005 191.728 
" clip-path="url(#p1fcfd8a85a)" style="fill: none; stroke-dasharray: 3.7,1.6; stroke-dashoffset: 0; stroke: #ff0000"/>
   </g>
   <g id="line2d_30">
    <path d="M 195.132 246.04 
L 195.132 46.896 
" clip-path="url(#p1fcfd8a85a)" style="fill: none; stroke-dasharray: 3.7,1.6; stroke-dashoffset: 0; stroke: #ff0000"/>
   </g>
   <g id="patch_3">
    <path d="M 46.55 246.04 
L 46.55 46.896 
" style="fill: none; stroke: #000000; stroke-width: 0.8; stroke-linejoin: miter; stroke-linecap: square"/>
   </g>
   <g id="patch_4">
    <path d="M 418.005 246.04 
L 418.005 46.896 
" style="fill: none; stroke: #000000; stroke-width: 0.8; stroke-linejoin: miter; stroke-linecap: square"/>
   </g>
   <g id="patch_5">
    <path d="M 46.55 246.04 
L 418.005 246.04 
" style="fill: none; stroke: #000000; stroke-width: 0.8; stroke-linejoin: miter; stroke-linecap: square"/>
   </g>
   <g id="patch_6">
    <path d="M 46.55 46.896 
L 418.005 46.896 
" style="fill: none; stroke: #000000; stroke-width: 0.8; stroke-linejoin: miter; stroke-linecap: square"/>
   </g>
   <g id="text_15">
    <!-- (0.0, 1.0) -->
    <g transform="translate(195.132 171.752281) scale(0.09 -0.09)">
     <defs>
      <path id="DejaVuSans-28" d="M 1984 4856 
Q 1566 4138 1362 3434 
Q 1159 2731 1159 2009 
Q 1159 1288 1364 580 
Q 1569 -128 1984 -844 
L 1484 -844 
Q 1016 -109 783 600 
Q 550 1309 550 2009 
Q 550 2706 781 3412 
Q 1013 4119 1484 4856 
L 1984 4856 
z
" transform="scale(0.015625)"/>
      <path id="DejaVuSans-2e" d="M 684 794 
L 1344 794 
L 1344 0 
L 684 0 
L 684 794 
z
" transform="scale(0.015625)"/>
      <path id="DejaVuSans-2c" d="M 750 794 
L 1409 794 
L 1409 256 
L 897 -744 
L 494 -744 
L 750 256 
L 750 794 
z
" transform="scale(0.015625)"/>
      <path id="DejaVuSans-20" transform="scale(0.015625)"/>
      <path id="DejaVuSans-31" d="M 794 531 
L 1825 531 
L 1825 4091 
L 703 3866 
L 703 4441 
L 1819 4666 
L 2450 4666 
L 2450 531 
L 3481 531 
L 3481 0 
L 794 0 
L 794 531 
z
" transform="scale(0.015625)"/>
      <path id="DejaVuSans-29" d="M 513 4856 
L 1013 4856 
Q 1481 4119 1714 3412 
Q 1947 2706 1947 2009 
Q 1947 1309 1714 600 
Q 1481 -109 1013 -844 
L 513 -844 
Q 928 -128 1133 580 
Q 1338 1288 1338 2009 
Q 1338 2731 1133 3434 
Q 928 4138 513 4856 
z
" transform="scale(0.015625)"/>
     </defs>
     <use xlink:href="#DejaVuSans-28"/>
     <use xlink:href="#DejaVuSans-30" transform="translate(39.013672 0)"/>
     <use xlink:href="#DejaVuSans-2e" transform="translate(102.636719 0)"/>
     <use xlink:href="#DejaVuSans-30" transform="translate(134.423828 0)"/>
     <use xlink:href="#DejaVuSans-2c" transform="translate(198.046875 0)"/>
     <use xlink:href="#DejaVuSans-20" transform="translate(229.833984 0)"/>
     <use xlink:href="#DejaVuSans-31" transform="translate(261.621094 0)"/>
     <use xlink:href="#DejaVuSans-2e" transform="translate(325.244141 0)"/>
     <use xlink:href="#DejaVuSans-30" transform="translate(357.03125 0)"/>
     <use xlink:href="#DejaVuSans-29" transform="translate(420.654297 0)"/>
    </g>
   </g>
   <g id="text_16">
    <!-- (1.0, 2.0) -->
    <g transform="translate(232.2775 153.648281) scale(0.09 -0.09)">
     <use xlink:href="#DejaVuSans-28"/>
     <use xlink:href="#DejaVuSans-31" transform="translate(39.013672 0)"/>
     <use xlink:href="#DejaVuSans-2e" transform="translate(102.636719 0)"/>
     <use xlink:href="#DejaVuSans-30" transform="translate(134.423828 0)"/>
     <use xlink:href="#DejaVuSans-2c" transform="translate(198.046875 0)"/>
     <use xlink:href="#DejaVuSans-20" transform="translate(229.833984 0)"/>
     <use xlink:href="#DejaVuSans-32" transform="translate(261.621094 0)"/>
     <use xlink:href="#DejaVuSans-2e" transform="translate(325.244141 0)"/>
     <use xlink:href="#DejaVuSans-30" transform="translate(357.03125 0)"/>
     <use xlink:href="#DejaVuSans-29" transform="translate(420.654297 0)"/>
    </g>
   </g>
   <g id="text_17">
    <!-- (2.0, 4.0) -->
    <g transform="translate(269.423 117.440281) scale(0.09 -0.09)">
     <use xlink:href="#DejaVuSans-28"/>
     <use xlink:href="#DejaVuSans-32" transform="translate(39.013672 0)"/>
     <use xlink:href="#DejaVuSans-2e" transform="translate(102.636719 0)"/>
     <use xlink:href="#DejaVuSans-30" transform="translate(134.423828 0)"/>
     <use xlink:href="#DejaVuSans-2c" transform="translate(198.046875 0)"/>
     <use xlink:href="#DejaVuSans-20" transform="translate(229.833984 0)"/>
     <use xlink:href="#DejaVuSans-34" transform="translate(261.621094 0)"/>
     <use xlink:href="#DejaVuSans-2e" transform="translate(325.244141 0)"/>
     <use xlink:href="#DejaVuSans-30" transform="translate(357.03125 0)"/>
     <use xlink:href="#DejaVuSans-29" transform="translate(420.654297 0)"/>
    </g>
   </g>
   <g id="text_18">
    <!-- f(x) = +0.5*x**2 +0.5*x**1 +1.0 -->
    <g transform="translate(149.404844 20.9816) scale(0.1 -0.1)">
     <defs>
      <path id="DejaVuSans-66" d="M 2375 4863 
L 2375 4384 
L 1825 4384 
Q 1516 4384 1395 4259 
Q 1275 4134 1275 3809 
L 1275 3500 
L 2222 3500 
L 2222 3053 
L 1275 3053 
L 1275 0 
L 697 0 
L 697 3053 
L 147 3053 
L 147 3500 
L 697 3500 
L 697 3744 
Q 697 4328 969 4595 
Q 1241 4863 1831 4863 
L 2375 4863 
z
" transform="scale(0.015625)"/>
      <path id="DejaVuSans-3d" d="M 678 2906 
L 4684 2906 
L 4684 2381 
L 678 2381 
L 678 2906 
z
M 678 1631 
L 4684 1631 
L 4684 1100 
L 678 1100 
L 678 1631 
z
" transform="scale(0.015625)"/>
      <path id="DejaVuSans-2b" d="M 2944 4013 
L 2944 2272 
L 4684 2272 
L 4684 1741 
L 2944 1741 
L 2944 0 
L 2419 0 
L 2419 1741 
L 678 1741 
L 678 2272 
L 2419 2272 
L 2419 4013 
L 2944 4013 
z
" transform="scale(0.015625)"/>
      <path id="DejaVuSans-35" d="M 691 4666 
L 3169 4666 
L 3169 4134 
L 1269 4134 
L 1269 2991 
Q 1406 3038 1543 3061 
Q 1681 3084 1819 3084 
Q 2600 3084 3056 2656 
Q 3513 2228 3513 1497 
Q 3513 744 3044 326 
Q 2575 -91 1722 -91 
Q 1428 -91 1123 -41 
Q 819 9 494 109 
L 494 744 
Q 775 591 1075 516 
Q 1375 441 1709 441 
Q 2250 441 2565 725 
Q 2881 1009 2881 1497 
Q 2881 1984 2565 2268 
Q 2250 2553 1709 2553 
Q 1456 2553 1204 2497 
Q 953 2441 691 2322 
L 691 4666 
z
" transform="scale(0.015625)"/>
      <path id="DejaVuSans-2a" d="M 3009 3897 
L 1888 3291 
L 3009 2681 
L 2828 2375 
L 1778 3009 
L 1778 1831 
L 1422 1831 
L 1422 3009 
L 372 2375 
L 191 2681 
L 1313 3291 
L 191 3897 
L 372 4206 
L 1422 3572 
L 1422 4750 
L 1778 4750 
L 1778 3572 
L 2828 4206 
L 3009 3897 
z
" transform="scale(0.015625)"/>
     </defs>
     <use xlink:href="#DejaVuSans-66"/>
     <use xlink:href="#DejaVuSans-28" transform="translate(35.205078 0)"/>
     <use xlink:href="#DejaVuSans-78" transform="translate(74.21875 0)"/>
     <use xlink:href="#DejaVuSans-29" transform="translate(133.398438 0)"/>
     <use xlink:href="#DejaVuSans-20" transform="translate(172.412109 0)"/>
     <use xlink:href="#DejaVuSans-3d" transform="translate(204.199219 0)"/>
     <use xlink:href="#DejaVuSans-20" transform="translate(287.988281 0)"/>
     <use xlink:href="#DejaVuSans-2b" transform="translate(319.775391 0)"/>
     <use xlink:href="#DejaVuSans-30" transform="translate(403.564453 0)"/>
     <use xlink:href="#DejaVuSans-2e" transform="translate(467.1875 0)"/>
     <use xlink:href="#DejaVuSans-35" transform="translate(498.974609 0)"/>
     <use xlink:href="#DejaVuSans-2a" transform="translate(562.597656 0)"/>
     <use xlink:href="#DejaVuSans-78" transform="translate(612.597656 0)"/>
     <use xlink:href="#DejaVuSans-2a" transform="translate(671.777344 0)"/>
     <use xlink:href="#DejaVuSans-2a" transform="translate(721.777344 0)"/>
     <use xlink:href="#DejaVuSans-32" transform="translate(771.777344 0)"/>
     <use xlink:href="#DejaVuSans-20" transform="translate(835.400391 0)"/>
     <use xlink:href="#DejaVuSans-2b" transform="translate(867.1875 0)"/>
     <use xlink:href="#DejaVuSans-30" transform="translate(950.976562 0)"/>
     <use xlink:href="#DejaVuSans-2e" transform="translate(1014.599609 0)"/>
     <use xlink:href="#DejaVuSans-35" transform="translate(1046.386719 0)"/>
     <use xlink:href="#DejaVuSans-2a" transform="translate(1110.009766 0)"/>
     <use xlink:href="#DejaVuSans-78" transform="translate(1160.009766 0)"/>
     <use xlink:href="#DejaVuSans-2a" transform="translate(1219.189453 0)"/>
     <use xlink:href="#DejaVuSans-2a" transform="translate(1269.189453 0)"/>
     <use xlink:href="#DejaVuSans-31" transform="translate(1319.189453 0)"/>
     <use xlink:href="#DejaVuSans-20" transform="translate(1382.8125 0)"/>
     <use xlink:href="#DejaVuSans-2b" transform="translate(1414.599609 0)"/>
     <use xlink:href="#DejaVuSans-31" transform="translate(1498.388672 0)"/>
     <use xlink:href="#DejaVuSans-2e" transform="translate(1562.011719 0)"/>
     <use xlink:href="#DejaVuSans-30" transform="translate(1593.798828 0)"/>
    </g>
   </g>
   <g id="legend_1">
    <g id="patch_7">
     <path d="M 361.762812 69.574125 
L 411.005 69.574125 
Q 413.005 69.574125 413.005 67.574125 
L 413.005 53.896 
Q 413.005 51.896 411.005 51.896 
L 361.762812 51.896 
Q 359.762812 51.896 359.762812 53.896 
L 359.762812 67.574125 
Q 359.762812 69.574125 361.762812 69.574125 
z
" style="fill: #ffffff; opacity: 0.8; stroke: #cccccc; stroke-linejoin: miter"/>
    </g>
    <g id="line2d_31">
     <path d="M 363.762812 59.994438 
L 373.762812 59.994438 
L 383.762812 59.994438 
" style="fill: none; stroke: #a18262; stroke-width: 1.5; stroke-linecap: square"/>
    </g>
    <g id="text_19">
     <!-- f(x) -->
     <g transform="translate(391.762812 63.494438) scale(0.1 -0.1)">
      <use xlink:href="#DejaVuSans-66"/>
      <use xlink:href="#DejaVuSans-28" transform="translate(35.205078 0)"/>
      <use xlink:href="#DejaVuSans-78" transform="translate(74.21875 0)"/>
      <use xlink:href="#DejaVuSans-29" transform="translate(133.398438 0)"/>
     </g>
    </g>
   </g>
  </g>
 </g>
 <defs>
  <clipPath id="p1fcfd8a85a">
   <rect x="46.55" y="46.896" width="371.455" height="199.144"/>
  </clipPath>
 </defs>
</svg>
